<?xml version="1.0" encoding="utf-8"?>
<!-- Generator: Adobe Illustrator 16.0.0, SVG Export Plug-In . SVG Version: 6.00 Build 0)  -->
<!DOCTYPE svg PUBLIC "-//W3C//DTD SVG 1.1//EN" "http://www.w3.org/Graphics/SVG/1.1/DTD/svg11.dtd">
<svg version="1.1" id="Ebene_1" xmlns="http://www.w3.org/2000/svg" xmlns:xlink="http://www.w3.org/1999/xlink" x="0px" y="0px"
	 width="63px" height="63px" viewBox="0 0 63 63" enable-background="new 0 0 63 63" xml:space="preserve">
<rect fill="#5384A5" width="63" height="63"/>
<rect fill="#5286C1" width="63" height="63"/>
<g>
	<g opacity="0.85">
		<path fill="#CBCACA" d="M44.266,43.397c5.232,0,9.475-4.242,9.475-9.476c0-3.279-1.666-6.169-4.199-7.869
			c-0.15-5.102-4.324-9.191-9.461-9.191c-3.547,0-6.633,1.951-8.258,4.836c-0.699-0.389-1.492-0.629-2.35-0.629
			c-2.645,0-4.785,2.107-4.863,4.732c-2.76,1.657-4.611,4.669-4.611,8.121c0,5.233,4.242,9.476,9.475,9.476H44.266z"/>
	</g>
	<g opacity="0.9">
		<linearGradient id="SVGID_1_" gradientUnits="userSpaceOnUse" x1="31.6152" y1="47.9326" x2="15.6378" y2="24.2451">
			<stop  offset="0.0613" style="stop-color:#FCFCFD;stop-opacity:0"/>
			<stop  offset="0.8098" style="stop-color:#FCFCFD"/>
		</linearGradient>
		<path fill="url(#SVGID_1_)" d="M30.826,46.693c4.959,0,8.979-4.241,8.979-9.475c0-3.28-1.58-6.169-3.979-7.87
			c-0.145-5.101-4.1-9.191-8.967-9.191c-3.359,0-6.285,1.951-7.824,4.837c-0.664-0.389-1.416-0.629-2.227-0.629
			c-2.508,0-4.535,2.107-4.611,4.732c-2.613,1.656-4.369,4.668-4.369,8.121c0,5.233,4.021,9.475,8.98,9.475H30.826z"/>
	</g>
</g>
</svg>
